# AST/ASF file generated using VICON BodyLanguage
# -----------------------------------------------
:version 1.10
:name VICON
:units
  mass 1.0
  length 0.45
  angle deg
:documentation
   .ast/.asf automatically generated from VICON data using
   VICON BodyBuilder and BodyLanguage model FoxedUp or BRILLIANT.MOD
:root
   order TX TY TZ RX RY RZ
   axis XYZ
   position 0 0 0  
   orientation 0 0 0 
:bonedata
  begin
     id 1 
     name lhipjoint
     direction 0.671379 -0.66392 0.329334 
     length 2.38647 
     axis 0 0 0  XYZ
  end
  begin
     id 2 
     name lfemur
     direction 0.34202 -0.939693 0  
     length 6.48179  
     axis 0 0 20  XYZ
    dof rx ry rz
    limits (-160.0 20.0)
           (-70.0 70.0)
           (-60.0 70.0)
  end
  begin
     id 3 
     name ltibia
     direction 0.34202 -0.939693 0   
     length 6.86524   
     axis 0 0 20   XYZ
    dof rx
    limits (-10.0 170.0)
  end
  begin
     id 4 
     name lfoot
     direction 0.204886 -0.562919 0.800715   
     length 1.73031   
     axis -90 7.62852e-016 20   XYZ
    dof rx rz
    limits (-45.0 90.0)
           (-70.0 20.0)
  end
  begin
     id 5 
     name ltoes
     direction 1.53548e-011 -4.21841e-011 1   
     length 0.828161   
     axis -90 7.62852e-016 20   XYZ
    dof rx
    limits (-90.0 20.0)
  end
  begin
     id 6 
     name rhipjoint
     direction -0.662732 -0.670855 0.332775   
     length 2.3618  
     axis 0 0 0  XYZ 
  end
  begin
     id 7 
     name rfemur
     direction -0.34202 -0.939693 0   
     length 6.3025   
     axis 0 0 -20   XYZ
    dof rx ry rz
    limits (-160.0 20.0)
           (-70.0 70.0)
           (-70.0 60.0)
  end
  begin
     id 8 
     name rtibia
     direction -0.34202 -0.939693 0   
     length 6.8732   
     axis 0 0 -20   XYZ
    dof rx
    limits (-10.0 170.0)
 end
 begin
     id 9 
     name rfoot
     direction -0.173856 -0.477665 0.861168   
     length 1.54784  
     axis -90 -7.62852e-016 -20   XYZ
    dof rx rz
    limits (-45.0 90.0)
           (-20.0 70.0)
  end
  begin
     id 10 
     name rtoes
     direction -1.53562e-011 -4.21802e-011 1   
     length 0.759618   
     axis -90 -7.62852e-016 -20   XYZ
    dof rx
    limits (-90.0 20.0)
  end
  begin
     id 11 
     name lowerback
     direction -0.0278357 0.999497 -0.0151789   
     length 1.97203   
     axis 0 0 0   XYZ
    dof rx ry rz
    limits (-20.0 45.0)
           (-30.0 30.0)
           (-30.0 30.0)
  end
  begin
     id 12 
     name upperback
     direction -0.00360622 0.997542 0.0699804   
     length 1.94709   
     axis 0 0 0   XYZ
    dof rx ry rz
    limits (-20.0 45.0)
           (-30.0 30.0)
           (-30.0 30.0)
  end
  begin
     id 13 
     name thorax
     direction 0.00907706 0.997048 0.0762461   
     length 1.95722   
     axis 0 0 0   XYZ
    dof rx ry rz
    limits (-20.0 45.0)
           (-30.0 30.0)
           (-30.0 30.0)
  end
  begin
     id 14 
     name lowerneck
     direction -0.0481835 0.99872 -0.0153927   
     length 1.63078   
     axis 0 0 0   XYZ
    dof rx ry rz
    limits (-20.0 45.0)
           (-30.0 30.0)
           (-30.0 30.0)
  end
  begin
     id 15 
     name upperneck
     direction 0.0859716 0.979226 -0.183644   
     length 1.62591   
     axis 0 0 0   XYZ
    dof rx ry rz
    limits (-20.0 45.0)
           (-30.0 30.0)
           (-30.0 30.0)
  end
  begin
     id 16
     name head
     direction 0.0324821 0.997629 -0.0606773  
     length 1.64811  
     axis 0 0 0   XYZ
    dof rx ry rz
    limits (-20.0 45.0)
           (-30.0 30.0)
           (-30.0 30.0)
  end
  begin
     id 17 
     name lclavicle
     direction 0.939609 0.311019 0.142835  
     length 3.70647  
     axis 0 0 0   XYZ
    dof ry rz
    limits (-20.0 10.0)
           (0.0 20.0)
  end
  begin
     id 18 
     name lhumerus
     direction 1 -4.48963e-011 -1.59838e-027   
     length 4.59207   
     axis 180 -30 -90   XYZ
    dof rx ry rz
    limits (-60.0 90.0)
           (-90.0 90.0)
           (-90.0 90.0)
  end
  begin
     id 19
     name lradius
     direction 1 -4.48957e-011 -1.3483e-026   
     length 2.98109   
     axis 180 -30 -90   XYZ
    dof rx
    limits (-10.0 170.0)
  end
  begin
     id 20
     name lwrist
     direction 1 -4.48954e-011 -3.11579e-026   
     length 1.49055   
     axis 2.00652e-014 90 90   XYZ
    dof ry
    limits (-180.0 0.0)
 end
  begin
     id 21 
     name lhand
     direction 1 -4.4911e-011 -6.23158e-026   
     length 0.480203   
     axis 3.97628e-014 90 90   XYZ
    dof rx rz
    limits (-90.0 90.0)
           (-45.0 45.0)
  end
  begin
     id 22 
     name lfingers
     direction 1 -4.48893e-011 -1.24632e-025   
     length 0.387152   
     axis 7.95256e-014 90 90   XYZ
    dof rx
    limits (0.0 90.0)
  end
  begin
     id 23
     name lthumb
     direction 0.707107 -6.35013e-011 0.707107   
     length 0.555875   
     axis -90 45 2.85299e-015   XYZ
    dof rx rz
    limits (-45.0 45.0)
           (-45.0 45.0)
  end
  begin
     id 24 
     name rclavicle
     direction -0.950396 0.30392 0.0661859   
     length 3.70894  
     axis 0 0 0   XYZ 
    dof ry rz
    limits (-10.0 20.0)
           (-20.0 0.0)
  end
  begin
     id 25 
     name rhumerus
     direction -1 -4.48957e-011 -2.96677e-027  
     length 4.76508   
     axis 180 30 90   XYZ
    dof rx ry rz
    limits (-90.0 60.0)
           (-90.0 90.0)
           (-90.0 90.0)
  end
  begin
     id 26 
     name rradius
     direction -1 -4.48974e-011 -1.44501e-026   
     length 2.78902   
     axis 180 30 90   XYZ
    dof rx
    limits (-10.0 170.0)
  end
  begin
     id 27 
     name rwrist
     direction -1 -4.48978e-011 -3.11579e-026   
     length 1.39451   
     axis 2.00652e-014 -90 -90   XYZ
    dof ry
    limits (-180.0 0.0)
  end
  begin
     id 28
     name rhand
     direction -1 -4.48956e-011 -6.23158e-026   
     length 0.721303   
     axis 3.97628e-014 -90 -90   XYZ
    dof rx rz
    limits (-90.0 90.0)
           (-45.0 45.0)
  end
  begin
     id 29
     name rfingers
     direction -1 -4.4899e-011 -1.24632e-025   
     length 0.581533   
     axis 7.95256e-014 -90 -90   XYZ
    dof rx
    limits (0.0 90.0)
  end
  begin
     id 30
     name rthumb
     direction -0.707107 -6.34911e-011 0.707107   
     length 0.834968   
     axis -90 -45 -2.85299e-015   XYZ
    dof rx rz
    limits (-45.0 45.0)
           (-45.0 45.0)
  end
:hierarchy
  begin
    root lhipjoint rhipjoint lowerback
    lhipjoint lfemur
    lfemur ltibia
    ltibia lfoot
    lfoot ltoes
    rhipjoint rfemur
    rfemur rtibia
    rtibia rfoot
    rfoot rtoes
    lowerback upperback
    upperback thorax
    thorax lowerneck lclavicle rclavicle
    lowerneck upperneck
    upperneck head
    lclavicle lhumerus
    lhumerus lradius
    lradius lwrist
    lwrist lhand lthumb
    lhand lfingers
    rclavicle rhumerus
    rhumerus rradius
    rradius rwrist
    rwrist rhand rthumb
    rhand rfingers
  end

#!OML:ASF I:\salsa\salsa 7_09\Patient 1\Session 1\dancerfemale.ASF
:FULLY-SPECIFIED
:DEGREES
554
root 13.6794 15.5689 2.83616 -21.5754 -429.445 24.4903
lowerback 13.4711 2.94888 -4.6717
upperback -4.18691 2.66854 -3.3157
thorax -12.2769 1.42927 -1.64608
lowerneck 4.24301 -12.0233 -15.1117
upperneck 0.829983 -17.0688 15.3976
head 2.2004 -8.68336 6.56581
rclavicle 7.88841e-014 1.76173e-014
rhumerus -67.9248 4.96824 -96.8442
rradius 73.3394
rwrist -7.11599
rhand 1.25084 68.8405
rfingers 7.12502
rthumb 26.7879 40.7174
lclavicle 7.88841e-014 1.76173e-014
lhumerus -17.6606 -10.9674 99.391
lradius 107.484
lwrist -25.7458
lhand -9.1713 40.6069
lfingers 7.12502
lthumb 16.7815 429.902
rfemur -32.2134 -18.478 13.7046
rtibia 65.1671
rfoot -22.2069 -11.1054
rtoes -15.5455
lfemur -17.7858 2.04916 -34.4376
ltibia 39.528
lfoot -30.2123 -4.62109
ltoes -34.319
555
root 13.5894 15.5823 2.90632 -20.9426 -428.135 24.0525
lowerback 13.4421 2.07712 -4.10151
upperback -4.14233 1.53588 -3.84607
thorax -12.1571 0.822958 -2.27104
lowerneck 4.2963 -11.7682 -15.0459
upperneck 0.568478 -16.7364 16.0223
head 2.11568 -8.52899 6.78616
rclavicle -6.84875e-015 -4.40308e-014
rhumerus -69.9992 5.42655 -95.8759
rradius 73.4869
rwrist -7.41825
rhand 2.00548 68.8034
rfingers 7.12502
rthumb 27.5098 40.793
lclavicle -6.84875e-015 -4.40308e-014
lhumerus -18.078 -11.996 100.592
lradius 108.837
lwrist -25.8679
lhand -9.88596 39.4656
lfingers 7.12502
lthumb 16.0935 428.817
rfemur -33.9821 -18.5191 13.4751
rtibia 63.1236
rfoot -22.334 -10.9312
rtoes -17.4496
lfemur -16.6663 1.93242 -34.9642
ltibia 38.3603
lfoot -30.077 -3.03232
ltoes -32.6532
556
root 13.4893 15.5964 2.97527 -20.1936 -426.843 23.4241
lowerback 13.4351 1.0696 -3.53159
upperback -4.1037 0.228918 -4.2876
thorax -12.1077 0.138009 -2.76544
lowerneck 4.00074 -11.4141 -14.9016
upperneck 0.662376 -16.2482 16.4215
head 2.13834 -8.27943 6.9066
rclavicle -7.15004e-015 -2.28602e-014
rhumerus -71.9616 6.06607 -94.6673
rradius 73.7883
rwrist -7.28388
rhand 2.57053 68.722
rfingers 7.12502
rthumb 28.0501 40.7989
lclavicle -7.15004e-015 -2.28602e-014
lhumerus -18.7589 -12.5919 101.617
lradius 110.129
lwrist -26.7064
lhand -9.91878 38.5091
lfingers 7.12502
lthumb 16.0619 427.863
rfemur -35.2231 -18.1495 13.1994
rtibia 60.3168
rfoot -22.7274 -10.8747
rtoes -17.6917
lfemur -15.4849 1.45156 -35.3589
ltibia 37.1866
lfoot -29.9075 -2.19542
ltoes -31.8995
557
root 13.3779 15.6182 3.03955 -19.5302 -425.591 23.0215
lowerback 13.206 0.0700454 -3.17862
upperback -4.08993 -1.094 -4.7013
thorax -11.9985 -0.538854 -3.10455
lowerneck 3.50107 -11.025 -14.5208
upperneck 0.955267 -15.6896 16.5616
head 2.19863 -7.98151 6.90114
rclavicle -3.98128e-014 2.10712e-014
rhumerus -73.6016 6.542 -93.1241
rradius 74.1242
rwrist -6.91691
rhand 2.71927 68.1357
rfingers 7.12502
rthumb 28.1923 40.2359
lclavicle -3.98128e-014 2.10712e-014
lhumerus -19.6911 -13.4641 102.711
lradius 110.936
lwrist -26.192
lhand -13.5228 38.1585
lfingers 7.12502
lthumb 12.5892 427.759
rfemur -36.2272 -17.3511 12.7638
rtibia 57.0416
rfoot -23.6139 -12.0704
rtoes -17.4908
lfemur -14.5053 1.40632 -35.7195
ltibia 35.989
lfoot -29.374 -2.92987
ltoes -31.3546
558
root 13.2583 15.6398 3.09894 -19.4777 -424.433 23.3364
lowerback 12.7741 -0.908881 -3.30374
upperback -4.00304 -2.45016 -5.04544
thorax -11.6996 -1.19545 -3.09489
lowerneck 2.75027 -10.5422 -14.2106
upperneck 1.28101 -14.979 16.6574
head 2.2893 -7.59489 6.88878
rclavicle -4.06266e-015 0
rhumerus -74.7964 7.12229 -91.2119
rradius 74.5209
rwrist -6.55693
rhand 2.75305 67.4278
rfingers 7.12502
rthumb 28.2246 39.5333
lclavicle -4.06266e-015 0
lhumerus -20.5135 -13.8153 103.649
lradius 111.645
lwrist -26.3461
lhand -14.9511 37.708
lfingers 7.12502
lthumb 11.212 427.388
rfemur -37.0075 -16.2931 11.9706
rtibia 53.6277
rfoot -24.5399 -11.3733
rtoes -15.197
lfemur -13.5974 1.92615 -36.2568
ltibia 34.7305
lfoot -28.3537 -4.67421
ltoes -29.4257
559
root 13.1327 15.6615 3.15563 -19.9056 -423.51 24.1484
lowerback 12.3038 -1.88416 -3.65977
upperback -3.90876 -3.83134 -5.35825
thorax -11.3637 -1.85071 -2.93244
lowerneck 1.80625 -9.95975 -14.0639
upperneck 1.78013 -14.1403 16.791
head 2.45882 -7.13347 6.91055
rclavicle 3.721e-014 2.94201e-014
rhumerus -75.6911 7.80889 -89.0522
rradius 75.0904
rwrist -6.38818
rhand 2.90591 66.9049
rfingers 7.12502
rthumb 28.3706 39.0347
lclavicle 3.721e-014 2.94201e-014
lhumerus -21.2862 -13.7569 104.352
lradius 112.079
lwrist -26.5593
lhand -15.8375 36.9545
lfingers 7.12502
lthumb 10.3569 426.679
rfemur -37.7246 -15.9935 11.1773
rtibia 50.3827
rfoot -24.3387 -11.2824
rtoes -18.795
lfemur -12.6966 2.63083 -36.9068
ltibia 33.4617
lfoot -27.0141 -6.67102
ltoes -26.0846
